<svg version="1.1" id="Icon_Set" xmlns="http://www.w3.org/2000/svg" x="0" y="0" viewBox="0 0 64 64" style="enable-background:new 0 0 64 64" xml:space="preserve"><style>.st0,.st2,.st3{fill:none;stroke:#37474f;stroke-linecap:round;stroke-linejoin:round;stroke-miterlimit:10}.st2,.st3{fill:#90caf9}.st3{fill:#fff}</style><g id="Resume"><path class="st0" d="M11 2.5h0c0-1.1.9-2 2-2h0c1.1 0 2 .9 2 2v8c0 1.1-.9 2-2 2h0c-1.1 0-2-.9-2-2v-3c0-.6.4-1 1-1h0c.6 0 1 .4 1 1v3M48 50.5V54c0 1.4-1.1 2.5-2.5 2.5H42M26.6 61H12.5c-1.4 0-2.5-1.1-2.5-2.5h0"/><path class="st0" d="M52.5 46v12.5c0 1.4-1.1 2.5-2.5 2.5H37.5M50 9h0c1.4 0 2.5 1.1 2.5 2.5v20.6M28.1 56.5H8.5C7.1 56.5 6 55.4 6 54V7c0-1.4 1.1-2.5 2.5-2.5h37C46.9 4.5 48 5.6 48 7v26.5"/><path class="st2" d="M42 23.5H32c-.6 0-1-.4-1-1v-12c0-.6.4-1 1-1h10c.6 0 1 .4 1 1v12c0 .5-.4 1-1 1z"/><circle class="st3" cx="37" cy="16.5" r="2.7"/><path class="st3" d="M41 23.5h-8v-.3c0-2.2 1.8-4 4-4h0c2.2 0 4 1.8 4 4v.3z"/><path class="st0" d="M11 23.5h8M11 15.5h8M11 18.5h16M11 28.5h32"/><path class="st2" d="M11 33.5h16M11 38.5h16M11 43.5h16M11 48.5h8"/><g><path class="st0" d="M35 .5h5M42 .5h1"/></g><g><path class="st0" d="M56.5 19.5v5M56.5 26.5v1"/></g><g><path d="m56.6 34.2.7.7c1 1 1 2.6 0 3.5L37.8 57.8l-4.2-4.2L53 34.2c1-1 2.6-1 3.6 0z" style="fill:#ffb300;stroke:#37474f;stroke-linecap:round;stroke-linejoin:round;stroke-miterlimit:10"/><path class="st0" d="m33.6 53.6 4.2 4.2-3.5 3.6-6.4 2.1 2.1-6.4z"/><path class="st0" d="m29.3 59.3-1.4 4.2 4.3-1.4zM49.8 34.5l-7 7.1"/><path style="fill:#37474f;stroke:#37474f;stroke-linecap:round;stroke-linejoin:round;stroke-miterlimit:10" d="M57.3 38.4 53 34.2"/></g></g></svg>